<svg width="20" height="29" viewBox="0 0 20 29" fill="none" xmlns="http://www.w3.org/2000/svg">
<g filter="url(#filter0_d_1_218)">
<path d="M14.3448 11.6068L14.863 8.19417H11.621V5.98058C11.621 5.04674 12.0731 4.13592 13.5251 4.13592H15V1.23058C15 1.23058 13.6621 1 12.3836 1C9.71237 1 7.96805 2.63481 7.96805 5.5932V8.19417H5V11.6068H7.96805V19.8571C8.56392 19.9516 9.17353 20 9.79453 20C10.4155 20 11.0251 19.9516 11.621 19.8571V11.6068H14.3448Z" fill="#3B599C"/>
<path d="M14.3448 11.6068L14.863 8.19417H11.621V5.98058C11.621 5.04674 12.0731 4.13592 13.5251 4.13592H15V1.23058C15 1.23058 13.6621 1 12.3836 1C9.71237 1 7.96805 2.63481 7.96805 5.5932V8.19417H5V11.6068H7.96805V19.8571C8.56392 19.9516 9.17353 20 9.79453 20C10.4155 20 11.0251 19.9516 11.621 19.8571V11.6068H14.3448Z" stroke="black"/>
</g>
<defs>
<filter id="filter0_d_1_218" x="0.5" y="0.5" width="19" height="28" filterUnits="userSpaceOnUse" color-interpolation-filters="sRGB">
<feFlood flood-opacity="0" result="BackgroundImageFix"/>
<feColorMatrix in="SourceAlpha" type="matrix" values="0 0 0 0 0 0 0 0 0 0 0 0 0 0 0 0 0 0 127 0" result="hardAlpha"/>
<feOffset dy="4"/>
<feGaussianBlur stdDeviation="2"/>
<feComposite in2="hardAlpha" operator="out"/>
<feColorMatrix type="matrix" values="0 0 0 0 0 0 0 0 0 0 0 0 0 0 0 0 0 0 0.25 0"/>
<feBlend mode="normal" in2="BackgroundImageFix" result="effect1_dropShadow_1_218"/>
<feBlend mode="normal" in="SourceGraphic" in2="effect1_dropShadow_1_218" result="shape"/>
</filter>
</defs>
</svg>
